<svg width="164" height="42" viewBox="0 0 164 42" fill="none" xmlns="http://www.w3.org/2000/svg">
<path fill-rule="evenodd" clip-rule="evenodd" d="M114.077 41V31.9551L117.308 28.3804L124.792 41H133.946L123.338 23.3435L134 11.428H124.038L114.077 22.0978V0H106V41H114.077ZM24.5 21.7692L17.5079 41H10.3506L0 11H8.53371L14.3697 28.4176L20.9213 11H28.0787L34.5753 28.4176L40.4112 11H49L38.5944 41H31.4371L24.5 21.7692ZM74.0684 39.9877C71.6615 41.3292 68.9812 42 66.0274 42C63.0735 42 60.384 41.3292 57.959 39.9877C55.5339 38.6462 53.6011 36.8061 52.1607 34.4675C50.7202 32.1289 50 29.4731 50 26.5C50 23.4906 50.7202 20.8257 52.1607 18.5053C53.6011 16.1848 55.5339 14.3538 57.959 13.0123C60.384 11.6708 63.0735 11 66.0274 11C68.9812 11 71.6615 11.6708 74.0684 13.0123C76.4752 14.3538 78.3989 16.1848 79.8393 18.5053C81.2798 20.8257 82 23.4906 82 26.5C82 29.4731 81.2798 32.1289 79.8393 34.4675C78.3989 36.8061 76.4752 38.6462 74.0684 39.9877ZM65.5273 34C63.3091 34 61.5 33.2533 60.1 31.76C58.7 30.2667 58 28.3467 58 26C58 23.6889 58.7 21.7778 60.1 20.2667C61.5 18.7556 63.3091 18 65.5273 18C67.7455 18 69.5455 18.7556 70.9273 20.2667C72.3091 21.7778 73 23.6889 73 26C73 28.3467 72.3091 30.2667 70.9273 31.76C69.5455 33.2533 67.7455 34 65.5273 34ZM93.9688 25.0217V41H86V11.3261H93.4375V15.7826C94.1813 13.9348 95.2349 12.6757 96.5984 12.0054C97.962 11.3351 99.5292 11 101.3 11H103V18.0652H100.503C98.5552 18.0652 96.9792 18.6721 95.775 19.8859C94.5708 21.0996 93.9688 22.8116 93.9688 25.0217ZM142 1V7H139V1H142ZM142 12H139V41H142V12ZM162.596 41.9455C162.073 41.9818 161.661 42 161.361 42C158.854 42 156.936 41.3192 155.607 39.9576C154.278 38.5961 153.614 36.6082 153.614 33.9939V15.8578H148V12.7534H150.133C151.219 12.7534 152.07 12.4266 152.688 11.7731C153.305 11.1195 153.614 10.23 153.614 9.10439V6H156.982V12.7534H163.495V15.8578H156.982V33.9939C156.982 34.7927 157.104 35.5734 157.347 36.3359C157.591 37.0983 158.068 37.7156 158.779 38.1876C159.49 38.6596 160.519 38.8956 161.867 38.8956C162.166 38.8956 162.531 38.8775 162.961 38.8411C163.392 38.8048 163.738 38.7685 164 38.7322V41.7277C163.588 41.8366 163.12 41.9092 162.596 41.9455Z" fill="#24053E"/>
</svg>
